<svg viewBox="0 0 24 24" fill="#000000">
  <path d="M 19.359 7.546 L 19.359 10.308 C 19.359 11.758 18.587 13.118 17.344 13.864 L 17.201 13.931 L 15.103 14.682 C 14.293 15.602 13.267 16.336 12.134 16.779 L 12.134 18.046 L 12.711 18.046 C 14.166 18.046 15.344 19.225 15.344 20.681 L 15.344 21.258 C 15.344 21.701 14.985 22.06 14.542 22.06 L 4.906 22.06 C 4.463 22.06 4.104 21.701 4.104 21.258 L 4.104 20.681 C 4.104 19.225 5.284 18.046 6.739 18.046 L 7.315 18.046 L 7.315 16.779 C 6.183 16.336 5.157 15.602 4.345 14.682 L 2.247 13.931 L 2.106 13.864 C 0.86 13.118 0.09 11.758 0.09 10.308 L 0.09 7.546 C 0.09 6.288 1.113 5.227 2.345 5.227 L 2.498 5.222 L 2.498 3.594 C 2.498 3.15 2.857 2.791 3.302 2.791 L 16.148 2.791 C 16.591 2.791 16.95 3.15 16.95 3.594 L 16.95 5.224 L 17.079 5.227 C 18.335 5.227 19.359 6.288 19.359 7.546 Z M 2.984 12.49 C 2.671 11.712 2.498 10.883 2.498 10.04 L 2.498 6.83 L 2.369 6.833 C 2.013 6.833 1.696 7.162 1.696 7.546 L 1.696 10.308 C 1.696 11.169 2.144 11.985 2.868 12.448 Z M 12.711 19.652 L 6.739 19.652 C 6.248 19.652 5.837 19.995 5.735 20.456 L 13.715 20.456 C 13.611 19.995 13.202 19.652 12.711 19.652 Z M 10.077 17.233 C 10.076 17.233 10.076 17.233 10.074 17.233 C 10.019 17.236 9.963 17.239 9.907 17.241 C 9.847 17.243 9.785 17.244 9.725 17.244 C 9.658 17.244 9.593 17.241 9.526 17.239 C 9.523 17.239 9.521 17.239 9.518 17.239 C 9.318 17.233 9.12 17.217 8.921 17.192 L 8.921 18.046 L 10.527 18.046 L 10.527 17.195 C 10.377 17.214 10.227 17.225 10.077 17.233 Z M 15.344 10.04 L 15.344 4.396 L 4.104 4.396 L 4.104 10.04 C 4.104 12.421 5.967 14.687 8.243 15.403 C 8.276 15.41 8.311 15.416 8.346 15.427 C 8.757 15.548 9.161 15.618 9.553 15.634 C 9.555 15.634 9.556 15.634 9.56 15.634 C 9.614 15.637 9.669 15.637 9.725 15.637 C 9.774 15.637 9.823 15.637 9.874 15.635 C 9.907 15.634 9.941 15.632 9.974 15.631 C 9.984 15.631 9.993 15.631 10.003 15.629 C 12.787 15.462 15.344 12.83 15.344 10.04 Z M 17.754 7.546 C 17.754 7.162 17.436 6.833 17.055 6.833 L 16.95 6.83 L 16.95 10.04 C 16.95 10.883 16.777 11.712 16.465 12.49 L 16.58 12.448 C 17.304 11.985 17.754 11.169 17.754 10.308 Z M 18.851 14.065 L 20.851 14.065 L 20.851 17.065 L 23.851 17.065 L 23.851 19.065 L 20.851 19.065 L 20.851 22.065 L 18.851 22.065 L 18.851 19.065 L 15.851 19.065 L 15.851 17.065 L 18.851 17.065 Z" style="" transform="matrix(1, 0, 0, 1, 1.7763568394002505e-15, 0)"></path>
</svg>