<svg viewBox="0 0 24 24" fill="#000000">
  <path d="M 5 6 L 8 6 L 8 4 L 5 4 L 5 1 L 3 1 L 3 4 L 0 4 L 0 6 L 3 6 L 3 9 L 5 9 L 5 6 Z M 11 12 C 13.21 12 15 13.79 15 16 C 15 18.21 13.21 20 11 20 C 8.79 20 7 18.21 7 16 C 7 13.79 8.79 12 11 12 Z M 11 10 C 7.685 10 5 12.685 5 16 C 5 19.315 7.685 22 11 22 C 14.315 22 17 19.315 17 16 C 17 12.685 14.315 10 11 10 Z M 9 8.749 C 14.065 10.057 19.002 6.232 19 1.001 L 17 1 C 17.001 5.142 12.905 8.039 9 6.658 L 9 8.749 Z M 21.977 14.5 C 21.989 11.647 19.818 9.259 16.977 9 L 16.977 11 C 19.639 11.417 20.851 14.559 19.159 16.656 C 18.839 17.053 18.435 17.375 17.977 17.6 L 18.577 19.5 L 18.577 19.6 C 20.64 18.748 21.984 16.732 21.977 14.5 Z M 23.977 1 L 21.977 1 C 21.995 3.363 20.625 5.516 18.477 6.5 L 19.277 8.3 C 22.143 7.002 23.982 4.146 23.977 1 Z" style="transform-origin: 11.9885px 11.5px;" transform="matrix(-1, 0, 0, -1, -0.000001550063, 3.42727e-7)"></path>
</svg>